<svg width="20" height="20" viewBox="0 0 20 20" fill="none" xmlns="http://www.w3.org/2000/svg">
<path d="M7.40234 19.9614H5.13867C2.68322 19.9614 0.685547 17.9638 0.685547 15.5083V9.42236C0.685547 6.96691 2.68322 4.96924 5.13867 4.96924H15.2324C17.6879 4.96924 19.6855 6.96691 19.6855 9.42236V11.6489C19.6855 12.0588 19.3533 12.3911 18.9434 12.3911C18.5334 12.3911 18.2012 12.0588 18.2012 11.6489V9.42236C18.2012 7.78539 16.8694 6.45361 15.2324 6.45361H5.13867C3.5017 6.45361 2.16992 7.78539 2.16992 9.42236V15.5083C2.16992 17.1453 3.5017 18.4771 5.13867 18.4771H7.40234C7.81225 18.4771 8.14453 18.8093 8.14453 19.2192C8.14453 19.6291 7.81225 19.9614 7.40234 19.9614ZM19.6855 17.6978V15.7375C19.6855 14.4857 18.6672 13.4673 17.4153 13.4673H15.4551C15.0452 13.4673 14.7129 13.7996 14.7129 14.2095C14.7129 14.6194 15.0452 14.9517 15.4551 14.9517H17.4153C17.8486 14.9517 18.2012 15.3042 18.2012 15.7375V17.6978C18.2012 18.1077 18.5334 18.4399 18.9434 18.4399C19.3533 18.4399 19.6855 18.1077 19.6855 17.6978ZM17.1048 17.2451C17.3878 16.9487 17.377 16.4789 17.0806 16.1958C16.7842 15.9127 16.3143 15.9236 16.0312 16.22C14.6615 17.6544 12.7383 18.4771 10.755 18.4771H10.4082C9.99829 18.4771 9.66602 18.8093 9.66602 19.2192C9.66602 19.6291 9.99829 19.9614 10.4082 19.9614H10.755C13.1419 19.9614 15.4563 18.9714 17.1048 17.2451ZM5.54688 8.45752C5.03451 8.45752 4.61914 8.87288 4.61914 9.38525C4.61914 9.89762 5.03451 10.313 5.54688 10.313C6.05924 10.313 6.47461 9.89762 6.47461 9.38525C6.47461 8.87288 6.05924 8.45752 5.54688 8.45752ZM8.73828 8.45752C8.22591 8.45752 7.81055 8.87288 7.81055 9.38525C7.81055 9.89762 8.22591 10.313 8.73828 10.313C9.25065 10.313 9.66602 9.89762 9.66602 9.38525C9.66602 8.87288 9.25065 8.45752 8.73828 8.45752ZM11.9297 8.45752C11.4173 8.45752 11.002 8.87288 11.002 9.38525C11.002 9.89762 11.4173 10.313 11.9297 10.313C12.4421 10.313 12.8574 9.89762 12.8574 9.38525C12.8574 8.87288 12.4421 8.45752 11.9297 8.45752ZM5.54688 11.6489C5.03451 11.6489 4.61914 12.0643 4.61914 12.5767C4.61914 13.089 5.03451 13.5044 5.54688 13.5044C6.05924 13.5044 6.47461 13.089 6.47461 12.5767C6.47461 12.0643 6.05924 11.6489 5.54688 11.6489ZM5.54688 14.8403C5.03451 14.8403 4.61914 15.2557 4.61914 15.7681C4.61914 16.2804 5.03451 16.6958 5.54688 16.6958C6.05924 16.6958 6.47461 16.2804 6.47461 15.7681C6.47461 15.2557 6.05924 14.8403 5.54688 14.8403ZM8.73828 11.6489C8.22591 11.6489 7.81055 12.0643 7.81055 12.5767C7.81055 13.089 8.22591 13.5044 8.73828 13.5044C9.25065 13.5044 9.66602 13.089 9.66602 12.5767C9.66602 12.0643 9.25065 11.6489 8.73828 11.6489ZM8.73828 14.8403C8.22591 14.8403 7.81055 15.2557 7.81055 15.7681C7.81055 16.2804 8.22591 16.6958 8.73828 16.6958C9.25065 16.6958 9.66602 16.2804 9.66602 15.7681C9.66602 15.2557 9.25065 14.8403 8.73828 14.8403ZM11.9297 11.6489C11.4173 11.6489 11.002 12.0643 11.002 12.5767C11.002 13.089 11.4173 13.5044 11.9297 13.5044C12.4421 13.5044 12.8574 13.089 12.8574 12.5767C12.8574 12.0643 12.4421 11.6489 11.9297 11.6489Z" fill="#18E614"/>
<path d="M7.43945 3.93018C7.02954 3.93018 6.69727 3.5979 6.69727 3.18799C6.69727 2.77875 6.36432 2.4458 5.95508 2.4458C5.54584 2.4458 5.21289 2.77875 5.21289 3.18799C5.21289 3.5979 4.88061 3.93018 4.4707 3.93018C4.06079 3.93018 3.72852 3.5979 3.72852 3.18799C3.72852 1.96026 4.72735 0.961426 5.95508 0.961426C7.1828 0.961426 8.18164 1.96026 8.18164 3.18799C8.18164 3.5979 7.84936 3.93018 7.43945 3.93018ZM16.7168 3.18799C16.7168 1.96026 15.718 0.961426 14.4902 0.961426C13.2625 0.961426 12.2637 1.96026 12.2637 3.18799C12.2637 3.5979 12.5959 3.93018 13.0059 3.93018C13.4158 3.93018 13.748 3.5979 13.748 3.18799C13.748 2.77875 14.081 2.4458 14.4902 2.4458C14.8995 2.4458 15.2324 2.77875 15.2324 3.18799C15.2324 3.5979 15.5647 3.93018 15.9746 3.93018C16.3845 3.93018 16.7168 3.5979 16.7168 3.18799ZM15.1211 8.45752C14.6087 8.45752 14.1934 8.87288 14.1934 9.38525C14.1934 9.89762 14.6087 10.313 15.1211 10.313C15.6335 10.313 16.0488 9.89762 16.0488 9.38525C16.0488 8.87288 15.6335 8.45752 15.1211 8.45752Z" fill="#F80D38"/>
</svg>
