<svg width="16" height="15" viewBox="0 0 16 15" fill="none" xmlns="http://www.w3.org/2000/svg">
<path d="M12.0049 14.7012H4.03613C2.09762 14.7012 0.520508 13.2292 0.520508 11.4199V6.79883C0.520508 4.98955 2.09762 3.51758 4.03613 3.51758H6.37988C6.7035 3.51758 6.96582 3.76241 6.96582 4.06445C6.96582 4.36649 6.7035 4.61133 6.37988 4.61133H4.03613C2.74379 4.61133 1.69238 5.59264 1.69238 6.79883V11.4199C1.69238 12.6261 2.74379 13.6074 4.03613 13.6074H12.0049C13.2972 13.6074 14.3486 12.6261 14.3486 11.4199V8.27539C14.3486 7.97335 14.611 7.72852 14.9346 7.72852C15.2582 7.72852 15.5205 7.97335 15.5205 8.27539V11.4199C15.5205 13.2292 13.9434 14.7012 12.0049 14.7012ZM15.5205 4.14648C15.5205 2.24672 13.8646 0.701172 11.8291 0.701172C9.79364 0.701172 8.1377 2.24672 8.1377 4.14648C8.1377 6.04625 9.79364 7.5918 11.8291 7.5918C13.8646 7.5918 15.5205 6.04625 15.5205 4.14648ZM14.3486 4.14648C14.3486 5.44312 13.2184 6.49805 11.8291 6.49805C10.4398 6.49805 9.30957 5.44312 9.30957 4.14648C9.30957 2.84984 10.4398 1.79492 11.8291 1.79492C13.2184 1.79492 14.3486 2.84984 14.3486 4.14648Z" fill="#18E614"/>
<path d="M8.02033 10.8709C7.26814 10.8709 6.51606 10.6475 5.88849 10.2008L3.09556 8.21852C2.83798 8.0357 2.78794 7.69259 2.98382 7.45218C3.17973 7.21175 3.54732 7.16504 3.80489 7.34789L6.5985 9.33064C7.43604 9.92687 8.60504 9.92684 9.44191 9.33113L10.4185 8.63398C10.6755 8.4505 11.0433 8.49622 11.2399 8.73611C11.4365 8.97599 11.3875 9.31924 11.1304 9.50272L10.1532 10.2003C9.52517 10.6474 8.77271 10.8709 8.02033 10.8709ZM12.4151 4.99414V3.29883C12.4151 2.99679 12.1527 2.75195 11.8291 2.75195H11.2432C10.9196 2.75195 10.6573 2.99679 10.6573 3.29883C10.6573 3.60087 10.9196 3.8457 11.2432 3.8457V4.99414C11.2432 5.29618 11.5055 5.54102 11.8291 5.54102C12.1527 5.54102 12.4151 5.29618 12.4151 4.99414Z" fill="#F80D38"/>
</svg>
