<svg width="14" height="17" viewBox="0 0 14 17" fill="none" xmlns="http://www.w3.org/2000/svg">
<path d="M12.3829 16.9676C12.0171 16.9676 11.7205 16.6711 11.7205 16.3052C11.7205 13.712 9.61077 11.6022 7.01751 11.6022H6.02391C3.43066 11.6022 1.32089 13.712 1.32089 16.3052C1.32089 16.6711 1.02433 16.9676 0.658492 16.9676C0.292649 16.9676 -0.00390625 16.6711 -0.00390625 16.3052C-0.00390625 12.9815 2.70017 10.2774 6.02391 10.2774H7.01751C10.3413 10.2774 13.0453 12.9815 13.0453 16.3052C13.0453 16.6711 12.7488 16.9676 12.3829 16.9676ZM10.9257 4.48144C10.9257 2.01603 8.91988 0.0102539 6.45447 0.0102539C3.98906 0.0102539 1.98329 2.01603 1.98329 4.48144C1.98329 6.94685 3.98906 8.95262 6.45447 8.95262C8.91988 8.95262 10.9257 6.94685 10.9257 4.48144ZM9.60086 4.48144C9.60086 6.21636 8.18939 7.62783 6.45447 7.62783C4.71955 7.62783 3.30808 6.21636 3.30808 4.48144C3.30808 2.74652 4.71955 1.33505 6.45447 1.33505C8.18939 1.33505 9.60086 2.74652 9.60086 4.48144Z" fill="#18E614"/>
<path d="M6.48768 16.9678C6.37282 16.9678 6.258 16.9379 6.15526 16.8783L3.47255 15.3217C3.31824 15.2322 3.2066 15.0842 3.16281 14.9112C3.11906 14.7383 3.14691 14.555 3.24005 14.4029L4.23364 12.78C4.42465 12.468 4.83245 12.3699 5.14444 12.5609C5.45643 12.752 5.5545 13.1597 5.36346 13.4717L4.72402 14.5162L6.49166 15.5419L8.30494 14.5151L7.65012 13.48C7.45455 13.1709 7.54659 12.7617 7.85577 12.5661C8.16487 12.3705 8.5741 12.4626 8.76968 12.7717L9.79639 14.3946C9.89333 14.5478 9.92321 14.7341 9.87913 14.9099C9.83501 15.0858 9.72078 15.2358 9.563 15.3252L6.81405 16.8818C6.7128 16.9391 6.60019 16.9678 6.48768 16.9678Z" fill="#F80D38"/>
</svg>
