<svg width="18" height="15" viewBox="0 0 18 15" fill="none" xmlns="http://www.w3.org/2000/svg">
<path d="M13.0361 12.3642H4.00418C1.8076 12.3642 0.0205078 10.8073 0.0205078 8.89371V4.1493C0.0205078 2.23535 1.8079 0.678223 4.00488 0.678223H10.5791C10.9458 0.678223 11.2431 0.937223 11.2431 1.25674C11.2431 1.57625 10.9458 1.83525 10.5791 1.83525H4.00488C2.54022 1.83525 1.34863 2.87333 1.34863 4.1493V8.89371C1.34863 10.1693 2.53992 11.2071 4.00418 11.2071H13.0361C14.5008 11.2071 15.6924 10.1691 15.6924 8.8931V6.28979C15.6924 5.97028 15.9897 5.71128 16.3564 5.71128C16.7232 5.71128 17.0205 5.97028 17.0205 6.28979V8.8931C17.0205 10.807 15.2331 12.3642 13.0361 12.3642ZM12.372 14.0997C12.372 13.7802 12.0747 13.5212 11.708 13.5212H5.333C4.96624 13.5212 4.66894 13.7802 4.66894 14.0997C4.66894 14.4192 4.96624 14.6782 5.333 14.6782H11.708C12.0747 14.6782 12.372 14.4192 12.372 14.0997Z" fill="#18E614"/>
<path d="M16.3563 4.55426C15.9896 4.55426 15.6923 4.29526 15.6923 3.97574V2.44781C15.6923 2.11004 15.3769 1.83525 14.9892 1.83525H13.2353C12.8685 1.83525 12.5712 1.57625 12.5712 1.25674C12.5712 0.937223 12.8685 0.678223 13.2353 0.678223H14.9892C16.1092 0.678223 17.0204 1.47203 17.0204 2.44781V3.97574C17.0204 4.29526 16.7231 4.55426 16.3563 4.55426ZM14.7113 3.62294C14.9646 3.39188 14.9549 3.02568 14.6897 2.80504C14.4244 2.58439 14.0041 2.59281 13.7508 2.82387C12.1391 4.29413 9.99862 5.10384 7.72355 5.10384H7.33105C6.96429 5.10384 6.66699 5.36284 6.66699 5.68235C6.66699 6.00187 6.96429 6.26087 7.33105 6.26087H7.72355C10.365 6.26087 12.8466 5.32402 14.7113 3.62294Z" fill="#F80D38"/>
</svg>
