<svg width="16" height="15" viewBox="0 0 16 15" fill="none" xmlns="http://www.w3.org/2000/svg">
<path d="M4.75781 8.58398C4.75781 8.9076 5.02014 9.16992 5.34375 9.16992H10.998C11.3217 9.16992 11.584 8.9076 11.584 8.58398C11.584 8.26037 11.3217 7.99805 10.998 7.99805H5.34375C5.02014 7.99805 4.75781 8.26037 4.75781 8.58398Z" fill="#18E614"/>
<path d="M14.1304 8.68348L13.9367 7.30146C13.8918 6.98101 13.5957 6.75753 13.2751 6.80253C12.9546 6.84744 12.7313 7.14366 12.7762 7.46414L13.039 9.33914C13.0796 9.62848 13.3271 9.84375 13.6193 9.84375H13.9277C14.2508 9.84375 14.5137 10.1066 14.5137 10.4297C14.5137 10.7528 14.2508 11.0156 13.9277 11.0156H2.44336C2.12027 11.0156 1.85742 10.7528 1.85742 10.4297C1.85742 10.1066 2.12027 9.84375 2.44336 9.84375H2.7518C3.04397 9.84375 3.2915 9.62851 3.33205 9.33914L3.96287 4.83894C4.13282 3.62663 4.80123 2.55249 5.79674 1.89199C6.50684 1.4209 7.33594 1.17188 8.24414 1.17188C8.81446 1.18365 9.37708 1.29598 9.85412 1.50393C10.1508 1.63321 10.4961 1.49757 10.6254 1.20094C10.7547 0.904307 10.619 0.558984 10.3224 0.429668C9.70441 0.160313 9.03516 0 8.24414 0C7.16024 0 6.05159 0.316582 5.1489 0.915498C3.8741 1.7613 3.01884 3.13204 2.80239 4.67628L2.24065 8.68351C1.36655 8.78435 0.685547 9.52898 0.685547 10.4297C0.685547 11.3989 1.4741 12.1875 2.44336 12.1875H13.9277C14.897 12.1875 15.6855 11.3989 15.6855 10.4297C15.6855 9.52898 15.0045 8.78435 14.1304 8.68348Z" fill="#18E614"/>
<path d="M8.21451 15C7.32162 15 6.57113 14.3364 6.46882 13.4563C6.43144 13.1349 6.66171 12.844 6.98316 12.8067C7.3046 12.7691 7.59546 12.9996 7.63285 13.321C7.66645 13.6101 7.91653 13.8281 8.21451 13.8281C8.51248 13.8281 8.76256 13.6101 8.79617 13.321C8.83355 12.9996 9.12461 12.7693 9.44585 12.8067C9.7673 12.844 9.99757 13.1349 9.96019 13.4563C9.85788 14.3364 9.10739 15 8.21451 15ZM15.0993 2.34375H13.3415V0.585938C13.3415 0.262324 13.0791 0 12.7555 0C12.4319 0 12.1696 0.262324 12.1696 0.585938V2.34375H10.4118C10.0882 2.34375 9.82583 2.60607 9.82583 2.92969C9.82583 3.2533 10.0882 3.51562 10.4118 3.51562H12.1696V5.27344C12.1696 5.59705 12.4319 5.85938 12.7555 5.85938C13.0791 5.85938 13.3415 5.59705 13.3415 5.27344V3.51562H15.0993C15.4229 3.51562 15.6852 3.2533 15.6852 2.92969C15.6852 2.60607 15.4229 2.34375 15.0993 2.34375Z" fill="#F80D38"/>
</svg>
