<svg width="20" height="20" viewBox="0 0 20 20" fill="none" xmlns="http://www.w3.org/2000/svg">
<path d="M14.5674 19.1162H4.47363C2.01818 19.1162 0.0205078 17.1185 0.0205078 14.6631V4.56934C0.0205078 2.11388 2.01818 0.116211 4.47363 0.116211H14.5674C17.0228 0.116211 19.0205 2.11388 19.0205 4.56934V14.6631C19.0205 17.1185 17.0228 19.1162 14.5674 19.1162ZM4.47363 1.60059C2.83666 1.60059 1.50488 2.93237 1.50488 4.56934V14.6631C1.50488 16.3001 2.83666 17.6318 4.47363 17.6318H14.5674C16.2044 17.6318 17.5361 16.3001 17.5361 14.6631V4.56934C17.5361 2.93237 16.2044 1.60059 14.5674 1.60059H4.47363ZM7.85059 3.86426C7.85059 3.45435 7.51831 3.12207 7.1084 3.12207H3.99121C3.5813 3.12207 3.24902 3.45435 3.24902 3.86426C3.24902 4.27417 3.5813 4.60645 3.99121 4.60645H7.1084C7.51831 4.60645 7.85059 4.27417 7.85059 3.86426ZM14.6416 12.5107C14.6416 12.1008 14.3093 11.7686 13.8994 11.7686H7.70215C7.29224 11.7686 6.95996 12.1008 6.95996 12.5107C6.95996 12.9207 7.29224 13.2529 7.70215 13.2529H13.8994C14.3093 13.2529 14.6416 12.9207 14.6416 12.5107ZM15.6436 15.4053C15.6436 14.9954 15.3113 14.6631 14.9014 14.6631H13.2686C12.8586 14.6631 12.5264 14.9954 12.5264 15.4053C12.5264 15.8152 12.8586 16.1475 13.2686 16.1475H14.9014C15.3113 16.1475 15.6436 15.8152 15.6436 15.4053Z" fill="#18E614"/>
<path d="M15.0127 10.3584H9.78027C9.37036 10.3584 9.03809 10.0261 9.03809 9.61621C9.03809 9.2063 9.37036 8.87402 9.78027 8.87402H15.0127C15.4226 8.87402 15.7549 9.2063 15.7549 9.61621C15.7549 10.0261 15.4226 10.3584 15.0127 10.3584ZM13.1572 6.75879C13.1572 6.34888 12.8249 6.0166 12.415 6.0166H5.47559C5.06568 6.0166 4.7334 6.34888 4.7334 6.75879C4.7334 7.1687 5.06568 7.50098 5.47559 7.50098H12.415C12.8249 7.50098 13.1572 7.1687 13.1572 6.75879Z" fill="#F80D38"/>
</svg>
