<svg width="17" height="17" viewBox="0 0 17 17" fill="none" xmlns="http://www.w3.org/2000/svg">
<path d="M12.7393 11.7935C11.2746 11.7935 10.083 10.6019 10.083 9.13721C10.083 7.67255 11.2746 6.48096 12.7393 6.48096C14.2039 6.48096 15.3955 7.67255 15.3955 9.13721C15.3955 10.6019 14.2039 11.7935 12.7393 11.7935ZM12.7393 7.73096C11.9639 7.73096 11.333 8.3618 11.333 9.13721C11.333 9.91261 11.9639 10.5435 12.7393 10.5435C13.5147 10.5435 14.1455 9.91261 14.1455 9.13721C14.1455 8.3618 13.5147 7.73096 12.7393 7.73096ZM7.77051 16.231C7.77051 15.8858 7.4907 15.606 7.14551 15.606H4.26985C2.89173 15.606 1.77051 14.4847 1.77051 13.1066V4.6053C1.77051 3.22718 2.89173 2.10596 4.26985 2.10596H10.0218C11.3999 2.10596 12.5211 3.22718 12.5211 4.6053C12.5211 4.95049 12.8009 5.2303 13.1461 5.2303C13.4913 5.2303 13.7711 4.95049 13.7711 4.6053C13.7712 2.53793 12.0892 0.855957 10.0212 0.855957H4.26985C2.20248 0.855957 0.520508 2.53793 0.520508 4.6053V13.1066C0.520508 15.174 2.20248 16.856 4.26985 16.856H7.14551C7.4907 16.856 7.77051 16.5761 7.77051 16.231ZM8.80176 7.94971C8.80176 7.60452 8.52194 7.32471 8.17676 7.32471H5.11426C4.76907 7.32471 4.48926 7.60452 4.48926 7.94971C4.48926 8.29489 4.76907 8.57471 5.11426 8.57471H8.17676C8.52194 8.57471 8.80176 8.29489 8.80176 7.94971ZM8.80176 12.731C8.80176 12.3858 8.52194 12.106 8.17676 12.106H5.11426C4.76907 12.106 4.48926 12.3858 4.48926 12.731C4.48926 13.0761 4.76907 13.356 5.11426 13.356H8.17676C8.52194 13.356 8.80176 13.0761 8.80176 12.731ZM8.80176 10.3247C8.80176 9.97952 8.52194 9.69971 8.17676 9.69971H5.11426C4.76907 9.69971 4.48926 9.97952 4.48926 10.3247C4.48926 10.6699 4.76907 10.9497 5.11426 10.9497H8.17676C8.52194 10.9497 8.80176 10.6699 8.80176 10.3247Z" fill="#18E614"/>
<path d="M15.8955 16.856C15.5503 16.856 15.2705 16.5761 15.2705 16.231C15.2705 14.9903 14.2678 13.981 13.0354 13.981H12.5057C11.2732 13.981 10.2705 14.9903 10.2705 16.231C10.2705 16.5761 9.9907 16.856 9.64551 16.856C9.30032 16.856 9.02051 16.5761 9.02051 16.231C9.02051 14.3011 10.5839 12.731 12.5057 12.731H13.0353C14.9571 12.731 16.5205 14.3011 16.5205 16.231C16.5205 16.5761 16.2407 16.856 15.8955 16.856ZM10.0518 5.54346C10.0518 5.19827 9.77195 4.91846 9.42676 4.91846H5.11426C4.76907 4.91846 4.48926 5.19827 4.48926 5.54346C4.48926 5.88864 4.76907 6.16846 5.11426 6.16846H9.42676C9.77195 6.16846 10.0518 5.88864 10.0518 5.54346Z" fill="#F80D38"/>
</svg>
