<svg width="16" height="15" viewBox="0 0 16 15" fill="none" xmlns="http://www.w3.org/2000/svg">
<path d="M6.20216 12.2866C2.79358 12.2866 0.0205078 9.70039 0.0205078 6.52148C0.0205078 3.34257 2.79358 0.756348 6.20216 0.756348C9.61074 0.756348 12.3838 3.34257 12.3838 6.52148C12.3838 9.70039 9.61071 12.2866 6.20216 12.2866ZM6.20216 1.84926C3.43975 1.84926 1.19238 3.9452 1.19238 6.52148C1.19238 9.09775 3.43975 11.1937 6.20216 11.1937C8.96456 11.1937 11.2119 9.09775 11.2119 6.52148C11.2119 3.9452 8.96453 1.84926 6.20216 1.84926Z" fill="#18E614"/>
<path d="M14.8491 14.5963C14.7347 14.703 14.5847 14.7563 14.4348 14.7563C14.2848 14.7563 14.1349 14.703 14.0204 14.5963L11.3984 12.1509C11.1695 11.9374 11.1695 11.5915 11.3984 11.3781C11.6272 11.1647 11.9982 11.1646 12.227 11.3781L14.8491 13.8235C15.0779 14.0369 15.0779 14.3829 14.8491 14.5963ZM8.99404 5.57457L8.60368 5.79299C8.68018 6.01589 8.72187 6.25319 8.72187 6.49945C8.72187 6.74571 8.68018 6.98301 8.60368 7.20591L8.99401 7.42433C9.27151 7.57961 9.36148 7.91527 9.19498 8.17404C9.08512 8.34481 8.89103 8.43943 8.69199 8.43943C8.58939 8.43943 8.48547 8.41429 8.39108 8.36148L7.99352 8.13901C7.67486 8.43686 7.27003 8.65413 6.81751 8.75632V9.23171C6.81751 9.53352 6.55519 9.77817 6.23157 9.77817C5.90796 9.77817 5.64564 9.53352 5.64564 9.23171V8.75632C5.1828 8.65178 4.77021 8.42651 4.44833 8.11817L4.0135 8.36148C3.91914 8.41429 3.81519 8.43943 3.7126 8.43943C3.51352 8.43943 3.31946 8.34481 3.2096 8.17404C3.0431 7.91527 3.1331 7.57958 3.41057 7.42433L3.85012 7.17837C3.77954 6.9635 3.74131 6.73557 3.74131 6.49945C3.74131 6.26333 3.77954 6.0354 3.85012 5.82053L3.41054 5.57457C3.13304 5.41929 3.04307 5.08363 3.20957 4.82483C3.37609 4.56603 3.73598 4.48212 4.01348 4.6374L4.4483 4.88071C4.77018 4.57234 5.18277 4.34709 5.64561 4.24255V3.76716C5.64561 3.46535 5.90793 3.2207 6.23154 3.2207C6.55516 3.2207 6.81748 3.46535 6.81748 3.76716V4.24255C7.27 4.34474 7.67483 4.56201 7.99349 4.85986L8.39102 4.6374C8.66855 4.48212 9.02843 4.56605 9.19493 4.82483C9.36151 5.08363 9.27151 5.41929 8.99404 5.57457ZM7.54999 6.49945C7.54999 5.82149 6.95858 5.26992 6.23163 5.26992C5.50469 5.26992 4.91327 5.82149 4.91327 6.49945C4.91327 7.17741 5.50469 7.72898 6.23163 7.72898C6.95858 7.72898 7.54999 7.17741 7.54999 6.49945Z" fill="#F80D38"/>
</svg>
